{
	"patcher" : 	{
		"fileversion" : 1,
		"appversion" : 		{
			"major" : 5,
			"minor" : 1,
			"revision" : 9
		}
,
		"rect" : [ 795.0, 299.0, 436.0, 587.0 ],
		"bglocked" : 0,
		"defrect" : [ 795.0, 299.0, 436.0, 587.0 ],
		"openrect" : [ 0.0, 0.0, 0.0, 0.0 ],
		"openinpresentation" : 1,
		"default_fontsize" : 12.0,
		"default_fontface" : 0,
		"default_fontname" : "Arial",
		"gridonopen" : 0,
		"gridsize" : [ 10.0, 10.0 ],
		"gridsnaponopen" : 0,
		"toolbarvisible" : 1,
		"boxanimatetime" : 200,
		"imprint" : 0,
		"enablehscroll" : 1,
		"enablevscroll" : 1,
		"devicewidth" : 0.0,
		"boxes" : [ 			{
				"box" : 				{
					"maxclass" : "newobj",
					"text" : "r reset",
					"numinlets" : 0,
					"fontname" : "Arial Bold",
					"numoutlets" : 1,
					"id" : "obj-7",
					"outlettype" : [ "" ],
					"fontsize" : 12.0,
					"color" : [ 1.0, 0.14902, 0.14902, 1.0 ],
					"patching_rect" : [ 240.0, 40.0, 48.0, 20.0 ]
				}

			}
, 			{
				"box" : 				{
					"maxclass" : "message",
					"text" : "$1",
					"numinlets" : 2,
					"fontname" : "Arial",
					"numoutlets" : 1,
					"id" : "obj-17",
					"outlettype" : [ "" ],
					"fontsize" : 12.0,
					"patching_rect" : [ 140.0, 290.0, 33.0, 18.0 ]
				}

			}
, 			{
				"box" : 				{
					"maxclass" : "message",
					"text" : "$2",
					"numinlets" : 2,
					"fontname" : "Arial",
					"numoutlets" : 1,
					"id" : "obj-16",
					"outlettype" : [ "" ],
					"fontsize" : 12.0,
					"patching_rect" : [ 80.0, 290.0, 33.0, 18.0 ]
				}

			}
, 			{
				"box" : 				{
					"maxclass" : "newobj",
					"text" : "trigger l l",
					"numinlets" : 1,
					"fontname" : "Arial",
					"numoutlets" : 2,
					"id" : "obj-15",
					"outlettype" : [ "", "" ],
					"fontsize" : 12.0,
					"patching_rect" : [ 80.0, 250.0, 79.0, 20.0 ]
				}

			}
, 			{
				"box" : 				{
					"maxclass" : "newobj",
					"text" : "append",
					"numinlets" : 1,
					"fontname" : "Arial",
					"numoutlets" : 1,
					"id" : "obj-9",
					"outlettype" : [ "" ],
					"fontsize" : 12.0,
					"patching_rect" : [ 80.0, 210.0, 53.0, 20.0 ]
				}

			}
, 			{
				"box" : 				{
					"maxclass" : "message",
					"text" : "set $1",
					"numinlets" : 2,
					"fontname" : "Arial",
					"numoutlets" : 1,
					"id" : "obj-8",
					"outlettype" : [ "" ],
					"fontsize" : 12.0,
					"patching_rect" : [ 40.0, 170.0, 44.0, 18.0 ]
				}

			}
, 			{
				"box" : 				{
					"maxclass" : "button",
					"numinlets" : 1,
					"numoutlets" : 1,
					"id" : "obj-5",
					"outlettype" : [ "bang" ],
					"patching_rect" : [ 220.0, 90.0, 20.0, 20.0 ]
				}

			}
, 			{
				"box" : 				{
					"maxclass" : "newobj",
					"text" : "route 0",
					"numinlets" : 1,
					"fontname" : "Arial",
					"numoutlets" : 2,
					"id" : "obj-13",
					"outlettype" : [ "", "" ],
					"fontsize" : 12.0,
					"patching_rect" : [ 10.0, 90.0, 49.0, 20.0 ]
				}

			}
, 			{
				"box" : 				{
					"maxclass" : "newobj",
					"text" : "patcher grid2matrix",
					"numinlets" : 3,
					"fontname" : "Arial Bold",
					"numoutlets" : 1,
					"id" : "obj-12",
					"outlettype" : [ "" ],
					"fontsize" : 12.0,
					"color" : [ 0.047059, 0.913725, 0.913725, 1.0 ],
					"patching_rect" : [ 80.0, 330.0, 139.0, 20.0 ],
					"patcher" : 					{
						"fileversion" : 1,
						"appversion" : 						{
							"major" : 5,
							"minor" : 1,
							"revision" : 9
						}
,
						"rect" : [ 1048.0, 319.0, 228.0, 351.0 ],
						"bglocked" : 0,
						"defrect" : [ 1048.0, 319.0, 228.0, 351.0 ],
						"openrect" : [ 0.0, 0.0, 0.0, 0.0 ],
						"openinpresentation" : 0,
						"default_fontsize" : 12.0,
						"default_fontface" : 0,
						"default_fontname" : "Arial",
						"gridonopen" : 0,
						"gridsize" : [ 10.0, 10.0 ],
						"gridsnaponopen" : 0,
						"toolbarvisible" : 1,
						"boxanimatetime" : 200,
						"imprint" : 0,
						"enablehscroll" : 1,
						"enablevscroll" : 1,
						"devicewidth" : 0.0,
						"boxes" : [ 							{
								"box" : 								{
									"maxclass" : "number",
									"numinlets" : 1,
									"fontname" : "Arial Bold",
									"numoutlets" : 2,
									"id" : "obj-20",
									"outlettype" : [ "int", "bang" ],
									"fontsize" : 10.0,
									"patching_rect" : [ 100.0, 40.0, 50.0, 18.0 ]
								}

							}
, 							{
								"box" : 								{
									"maxclass" : "number",
									"numinlets" : 1,
									"fontname" : "Arial Bold",
									"numoutlets" : 2,
									"id" : "obj-21",
									"outlettype" : [ "int", "bang" ],
									"fontsize" : 10.0,
									"patching_rect" : [ 170.0, 210.0, 50.0, 18.0 ]
								}

							}
, 							{
								"box" : 								{
									"maxclass" : "number",
									"numinlets" : 1,
									"fontname" : "Arial Bold",
									"numoutlets" : 2,
									"id" : "obj-22",
									"outlettype" : [ "int", "bang" ],
									"fontsize" : 10.0,
									"patching_rect" : [ 20.0, 40.0, 46.0, 18.0 ]
								}

							}
, 							{
								"box" : 								{
									"maxclass" : "number",
									"numinlets" : 1,
									"fontname" : "Arial Bold",
									"numoutlets" : 2,
									"id" : "obj-33",
									"outlettype" : [ "int", "bang" ],
									"fontsize" : 10.0,
									"patching_rect" : [ 100.0, 210.0, 50.0, 18.0 ]
								}

							}
, 							{
								"box" : 								{
									"maxclass" : "number",
									"numinlets" : 1,
									"fontname" : "Arial Bold",
									"numoutlets" : 2,
									"id" : "obj-31",
									"outlettype" : [ "int", "bang" ],
									"fontsize" : 10.0,
									"patching_rect" : [ 20.0, 210.0, 50.0, 18.0 ]
								}

							}
, 							{
								"box" : 								{
									"maxclass" : "newobj",
									"text" : "+",
									"numinlets" : 2,
									"fontname" : "Arial",
									"numoutlets" : 1,
									"id" : "obj-19",
									"outlettype" : [ "int" ],
									"fontsize" : 12.0,
									"patching_rect" : [ 100.0, 170.0, 32.5, 20.0 ]
								}

							}
, 							{
								"box" : 								{
									"maxclass" : "newobj",
									"text" : "* 4",
									"numinlets" : 2,
									"fontname" : "Arial",
									"numoutlets" : 1,
									"id" : "obj-18",
									"outlettype" : [ "int" ],
									"fontsize" : 12.0,
									"patching_rect" : [ 50.0, 130.0, 28.5, 20.0 ]
								}

							}
, 							{
								"box" : 								{
									"maxclass" : "message",
									"text" : "4",
									"numinlets" : 2,
									"fontname" : "Arial",
									"numoutlets" : 1,
									"id" : "obj-17",
									"outlettype" : [ "" ],
									"fontsize" : 12.0,
									"patching_rect" : [ 100.0, 100.0, 32.5, 18.0 ]
								}

							}
, 							{
								"box" : 								{
									"maxclass" : "newobj",
									"text" : "-",
									"numinlets" : 2,
									"fontname" : "Arial",
									"numoutlets" : 1,
									"id" : "obj-16",
									"outlettype" : [ "int" ],
									"fontsize" : 12.0,
									"patching_rect" : [ 130.0, 130.0, 32.5, 20.0 ]
								}

							}
, 							{
								"box" : 								{
									"maxclass" : "newobj",
									"text" : "/ 8",
									"numinlets" : 2,
									"fontname" : "Arial",
									"numoutlets" : 1,
									"id" : "obj-14",
									"outlettype" : [ "int" ],
									"fontsize" : 12.0,
									"patching_rect" : [ 50.0, 100.0, 28.5, 20.0 ]
								}

							}
, 							{
								"box" : 								{
									"maxclass" : "newobj",
									"text" : "- 1",
									"numinlets" : 2,
									"fontname" : "Arial",
									"numoutlets" : 1,
									"id" : "obj-12",
									"outlettype" : [ "int" ],
									"fontsize" : 12.0,
									"patching_rect" : [ 20.0, 70.0, 28.5, 20.0 ]
								}

							}
, 							{
								"box" : 								{
									"maxclass" : "newobj",
									"text" : "% 8",
									"numinlets" : 2,
									"fontname" : "Arial",
									"numoutlets" : 1,
									"id" : "obj-11",
									"outlettype" : [ "int" ],
									"fontsize" : 12.0,
									"patching_rect" : [ 20.0, 170.0, 32.5, 20.0 ]
								}

							}
, 							{
								"box" : 								{
									"maxclass" : "newobj",
									"text" : "pack 1 1 1",
									"numinlets" : 3,
									"fontname" : "Arial",
									"numoutlets" : 1,
									"id" : "obj-8",
									"outlettype" : [ "" ],
									"fontsize" : 12.0,
									"patching_rect" : [ 50.0, 270.0, 67.0, 20.0 ]
								}

							}
, 							{
								"box" : 								{
									"maxclass" : "outlet",
									"numinlets" : 1,
									"numoutlets" : 0,
									"id" : "obj-7",
									"patching_rect" : [ 50.0, 310.0, 25.0, 25.0 ],
									"comment" : ""
								}

							}
, 							{
								"box" : 								{
									"maxclass" : "inlet",
									"numinlets" : 0,
									"numoutlets" : 1,
									"id" : "obj-6",
									"outlettype" : [ "" ],
									"patching_rect" : [ 170.0, 10.0, 25.0, 25.0 ],
									"comment" : "value"
								}

							}
, 							{
								"box" : 								{
									"maxclass" : "inlet",
									"numinlets" : 0,
									"numoutlets" : 1,
									"id" : "obj-2",
									"outlettype" : [ "" ],
									"patching_rect" : [ 100.0, 10.0, 25.0, 25.0 ],
									"comment" : "y"
								}

							}
, 							{
								"box" : 								{
									"maxclass" : "inlet",
									"numinlets" : 0,
									"numoutlets" : 1,
									"id" : "obj-1",
									"outlettype" : [ "" ],
									"patching_rect" : [ 20.0, 10.0, 25.0, 25.0 ],
									"comment" : "x"
								}

							}
 ],
						"lines" : [ 							{
								"patchline" : 								{
									"source" : [ "obj-18", 0 ],
									"destination" : [ "obj-19", 0 ],
									"hidden" : 0,
									"midpoints" : [ 59.5, 159.5, 109.5, 159.5 ]
								}

							}
, 							{
								"patchline" : 								{
									"source" : [ "obj-16", 0 ],
									"destination" : [ "obj-19", 1 ],
									"hidden" : 0,
									"midpoints" : [ 139.5, 159.5, 123.0, 159.5 ]
								}

							}
, 							{
								"patchline" : 								{
									"source" : [ "obj-8", 0 ],
									"destination" : [ "obj-7", 0 ],
									"hidden" : 0,
									"midpoints" : [  ]
								}

							}
, 							{
								"patchline" : 								{
									"source" : [ "obj-31", 0 ],
									"destination" : [ "obj-8", 0 ],
									"hidden" : 0,
									"midpoints" : [ 29.5, 248.5, 59.5, 248.5 ]
								}

							}
, 							{
								"patchline" : 								{
									"source" : [ "obj-33", 0 ],
									"destination" : [ "obj-8", 1 ],
									"hidden" : 0,
									"midpoints" : [ 109.5, 248.5, 83.5, 248.5 ]
								}

							}
, 							{
								"patchline" : 								{
									"source" : [ "obj-21", 0 ],
									"destination" : [ "obj-8", 2 ],
									"hidden" : 0,
									"midpoints" : [ 179.5, 257.5, 107.5, 257.5 ]
								}

							}
, 							{
								"patchline" : 								{
									"source" : [ "obj-17", 0 ],
									"destination" : [ "obj-16", 0 ],
									"hidden" : 0,
									"midpoints" : [ 109.5, 123.5, 139.5, 123.5 ]
								}

							}
, 							{
								"patchline" : 								{
									"source" : [ "obj-20", 0 ],
									"destination" : [ "obj-16", 1 ],
									"hidden" : 0,
									"midpoints" : [ 109.5, 93.5, 153.0, 93.5 ]
								}

							}
, 							{
								"patchline" : 								{
									"source" : [ "obj-6", 0 ],
									"destination" : [ "obj-21", 0 ],
									"hidden" : 0,
									"midpoints" : [  ]
								}

							}
, 							{
								"patchline" : 								{
									"source" : [ "obj-20", 0 ],
									"destination" : [ "obj-17", 0 ],
									"hidden" : 0,
									"midpoints" : [  ]
								}

							}
, 							{
								"patchline" : 								{
									"source" : [ "obj-2", 0 ],
									"destination" : [ "obj-20", 0 ],
									"hidden" : 0,
									"midpoints" : [  ]
								}

							}
, 							{
								"patchline" : 								{
									"source" : [ "obj-1", 0 ],
									"destination" : [ "obj-22", 0 ],
									"hidden" : 0,
									"midpoints" : [  ]
								}

							}
, 							{
								"patchline" : 								{
									"source" : [ "obj-22", 0 ],
									"destination" : [ "obj-12", 0 ],
									"hidden" : 0,
									"midpoints" : [  ]
								}

							}
, 							{
								"patchline" : 								{
									"source" : [ "obj-19", 0 ],
									"destination" : [ "obj-33", 0 ],
									"hidden" : 0,
									"midpoints" : [  ]
								}

							}
, 							{
								"patchline" : 								{
									"source" : [ "obj-11", 0 ],
									"destination" : [ "obj-31", 0 ],
									"hidden" : 0,
									"midpoints" : [  ]
								}

							}
, 							{
								"patchline" : 								{
									"source" : [ "obj-14", 0 ],
									"destination" : [ "obj-18", 0 ],
									"hidden" : 0,
									"midpoints" : [  ]
								}

							}
, 							{
								"patchline" : 								{
									"source" : [ "obj-12", 0 ],
									"destination" : [ "obj-14", 0 ],
									"hidden" : 0,
									"midpoints" : [ 29.5, 94.5, 59.5, 94.5 ]
								}

							}
, 							{
								"patchline" : 								{
									"source" : [ "obj-12", 0 ],
									"destination" : [ "obj-11", 0 ],
									"hidden" : 0,
									"midpoints" : [  ]
								}

							}
 ]
					}
,
					"saved_object_attributes" : 					{
						"default_fontsize" : 12.0,
						"fontname" : "Arial",
						"default_fontface" : 0,
						"fontface" : 0,
						"fontsize" : 12.0,
						"globalpatchername" : "",
						"default_fontname" : "Arial"
					}

				}

			}
, 			{
				"box" : 				{
					"maxclass" : "newobj",
					"text" : "trigger l b",
					"numinlets" : 1,
					"fontname" : "Arial",
					"numoutlets" : 2,
					"id" : "obj-6",
					"outlettype" : [ "", "bang" ],
					"fontsize" : 12.0,
					"patching_rect" : [ 10.0, 50.0, 63.0, 20.0 ]
				}

			}
, 			{
				"box" : 				{
					"maxclass" : "newobj",
					"text" : "cycle 2 1",
					"numinlets" : 1,
					"fontname" : "Arial",
					"numoutlets" : 2,
					"id" : "obj-4",
					"outlettype" : [ "", "" ],
					"fontsize" : 12.0,
					"patching_rect" : [ 40.0, 130.0, 59.0, 20.0 ]
				}

			}
, 			{
				"box" : 				{
					"maxclass" : "inlet",
					"numinlets" : 0,
					"numoutlets" : 1,
					"id" : "obj-3",
					"outlettype" : [ "" ],
					"patching_rect" : [ 10.0, 10.0, 25.0, 25.0 ],
					"comment" : "full reset input, will reset the whole grid and set it new at one. use just one message"
				}

			}
, 			{
				"box" : 				{
					"maxclass" : "outlet",
					"numinlets" : 1,
					"numoutlets" : 0,
					"id" : "obj-2",
					"patching_rect" : [ 220.0, 540.0, 25.0, 25.0 ],
					"comment" : "out as changes, not absolute"
				}

			}
, 			{
				"box" : 				{
					"maxclass" : "inlet",
					"numinlets" : 0,
					"numoutlets" : 1,
					"id" : "obj-1",
					"outlettype" : [ "" ],
					"patching_rect" : [ 320.0, 10.0, 25.0, 25.0 ],
					"comment" : "single input, switch coords on and off"
				}

			}
, 			{
				"box" : 				{
					"maxclass" : "newobj",
					"text" : "r on_off",
					"numinlets" : 0,
					"fontname" : "Arial Bold",
					"numoutlets" : 1,
					"id" : "obj-52",
					"outlettype" : [ "" ],
					"fontsize" : 12.0,
					"color" : [ 1.0, 0.0, 0.0, 1.0 ],
					"patching_rect" : [ 220.0, 10.0, 55.0, 20.0 ]
				}

			}
, 			{
				"box" : 				{
					"maxclass" : "message",
					"text" : "clear",
					"numinlets" : 2,
					"fontname" : "Arial Bold",
					"numoutlets" : 1,
					"id" : "obj-109",
					"outlettype" : [ "" ],
					"fontsize" : 12.0,
					"patching_rect" : [ 220.0, 170.0, 41.0, 18.0 ]
				}

			}
, 			{
				"box" : 				{
					"maxclass" : "matrixctrl",
					"presentation" : 1,
					"rows" : 8,
					"numinlets" : 1,
					"numoutlets" : 2,
					"id" : "obj-107",
					"outlettype" : [ "list", "list" ],
					"scale" : 0,
					"presentation_rect" : [ 0.0, 0.0, 130.0, 130.0 ],
					"background" : 1,
					"patching_rect" : [ 220.0, 390.0, 130.0, 130.0 ]
				}

			}
 ],
		"lines" : [ 			{
				"patchline" : 				{
					"source" : [ "obj-52", 0 ],
					"destination" : [ "obj-5", 0 ],
					"hidden" : 0,
					"midpoints" : [  ]
				}

			}
, 			{
				"patchline" : 				{
					"source" : [ "obj-1", 0 ],
					"destination" : [ "obj-107", 0 ],
					"hidden" : 0,
					"midpoints" : [ 329.5, 289.0, 229.5, 289.0 ]
				}

			}
, 			{
				"patchline" : 				{
					"source" : [ "obj-107", 0 ],
					"destination" : [ "obj-2", 0 ],
					"hidden" : 0,
					"midpoints" : [  ]
				}

			}
, 			{
				"patchline" : 				{
					"source" : [ "obj-109", 0 ],
					"destination" : [ "obj-107", 0 ],
					"hidden" : 0,
					"midpoints" : [  ]
				}

			}
, 			{
				"patchline" : 				{
					"source" : [ "obj-17", 0 ],
					"destination" : [ "obj-12", 1 ],
					"hidden" : 0,
					"midpoints" : [  ]
				}

			}
, 			{
				"patchline" : 				{
					"source" : [ "obj-16", 0 ],
					"destination" : [ "obj-12", 0 ],
					"hidden" : 0,
					"midpoints" : [  ]
				}

			}
, 			{
				"patchline" : 				{
					"source" : [ "obj-15", 1 ],
					"destination" : [ "obj-17", 0 ],
					"hidden" : 0,
					"midpoints" : [  ]
				}

			}
, 			{
				"patchline" : 				{
					"source" : [ "obj-15", 0 ],
					"destination" : [ "obj-16", 0 ],
					"hidden" : 0,
					"midpoints" : [  ]
				}

			}
, 			{
				"patchline" : 				{
					"source" : [ "obj-9", 0 ],
					"destination" : [ "obj-15", 0 ],
					"hidden" : 0,
					"midpoints" : [  ]
				}

			}
, 			{
				"patchline" : 				{
					"source" : [ "obj-4", 1 ],
					"destination" : [ "obj-9", 0 ],
					"hidden" : 0,
					"midpoints" : [  ]
				}

			}
, 			{
				"patchline" : 				{
					"source" : [ "obj-8", 0 ],
					"destination" : [ "obj-9", 0 ],
					"hidden" : 0,
					"midpoints" : [ 49.5, 207.0, 89.5, 207.0 ]
				}

			}
, 			{
				"patchline" : 				{
					"source" : [ "obj-4", 0 ],
					"destination" : [ "obj-8", 0 ],
					"hidden" : 0,
					"midpoints" : [  ]
				}

			}
, 			{
				"patchline" : 				{
					"source" : [ "obj-6", 1 ],
					"destination" : [ "obj-109", 0 ],
					"hidden" : 0,
					"midpoints" : [ 63.5, 121.5, 229.5, 121.5 ]
				}

			}
, 			{
				"patchline" : 				{
					"source" : [ "obj-3", 0 ],
					"destination" : [ "obj-6", 0 ],
					"hidden" : 0,
					"midpoints" : [  ]
				}

			}
, 			{
				"patchline" : 				{
					"source" : [ "obj-6", 0 ],
					"destination" : [ "obj-13", 0 ],
					"hidden" : 0,
					"midpoints" : [  ]
				}

			}
, 			{
				"patchline" : 				{
					"source" : [ "obj-13", 1 ],
					"destination" : [ "obj-4", 0 ],
					"hidden" : 0,
					"midpoints" : [  ]
				}

			}
, 			{
				"patchline" : 				{
					"source" : [ "obj-12", 0 ],
					"destination" : [ "obj-107", 0 ],
					"hidden" : 0,
					"midpoints" : [ 89.5, 369.5, 229.5, 369.5 ]
				}

			}
, 			{
				"patchline" : 				{
					"source" : [ "obj-5", 0 ],
					"destination" : [ "obj-109", 0 ],
					"hidden" : 0,
					"midpoints" : [  ]
				}

			}
, 			{
				"patchline" : 				{
					"source" : [ "obj-7", 0 ],
					"destination" : [ "obj-5", 0 ],
					"hidden" : 0,
					"midpoints" : [ 249.5, 84.5, 229.5, 84.5 ]
				}

			}
 ]
	}

}
