{
	"patcher" : 	{
		"fileversion" : 1,
		"appversion" : 		{
			"major" : 5,
			"minor" : 1,
			"revision" : 9
		}
,
		"rect" : [ 267.0, 138.0, 1341.0, 789.0 ],
		"bglocked" : 0,
		"defrect" : [ 267.0, 138.0, 1341.0, 789.0 ],
		"openrect" : [ 0.0, 0.0, 0.0, 0.0 ],
		"openinpresentation" : 1,
		"default_fontsize" : 12.0,
		"default_fontface" : 0,
		"default_fontname" : "Arial Bold",
		"gridonopen" : 0,
		"gridsize" : [ 10.0, 10.0 ],
		"gridsnaponopen" : 0,
		"toolbarvisible" : 1,
		"boxanimatetime" : 200,
		"imprint" : 0,
		"enablehscroll" : 1,
		"enablevscroll" : 1,
		"devicewidth" : 0.0,
		"boxes" : [ 			{
				"box" : 				{
					"maxclass" : "newobj",
					"text" : "print ERROR",
					"fontname" : "Arial",
					"id" : "obj-54",
					"fontsize" : 12.0,
					"numinlets" : 1,
					"patching_rect" : [ 920.0, 410.0, 81.0, 20.0 ],
					"numoutlets" : 0
				}

			}
, 			{
				"box" : 				{
					"maxclass" : "newobj",
					"text" : "change",
					"outlettype" : [ "", "int", "int" ],
					"fontname" : "Arial",
					"id" : "obj-124",
					"fontsize" : 12.0,
					"numinlets" : 1,
					"patching_rect" : [ 680.0, 390.0, 51.0, 20.0 ],
					"numoutlets" : 3
				}

			}
, 			{
				"box" : 				{
					"maxclass" : "newobj",
					"text" : "change",
					"outlettype" : [ "", "int", "int" ],
					"fontname" : "Arial",
					"id" : "obj-121",
					"fontsize" : 12.0,
					"numinlets" : 1,
					"patching_rect" : [ 620.0, 390.0, 51.0, 20.0 ],
					"numoutlets" : 3
				}

			}
, 			{
				"box" : 				{
					"maxclass" : "newobj",
					"text" : "change",
					"outlettype" : [ "", "int", "int" ],
					"fontname" : "Arial",
					"id" : "obj-122",
					"fontsize" : 12.0,
					"numinlets" : 1,
					"patching_rect" : [ 560.0, 390.0, 51.0, 20.0 ],
					"numoutlets" : 3
				}

			}
, 			{
				"box" : 				{
					"maxclass" : "newobj",
					"text" : "change",
					"outlettype" : [ "", "int", "int" ],
					"fontname" : "Arial",
					"id" : "obj-123",
					"fontsize" : 12.0,
					"numinlets" : 1,
					"patching_rect" : [ 500.0, 390.0, 51.0, 20.0 ],
					"numoutlets" : 3
				}

			}
, 			{
				"box" : 				{
					"maxclass" : "newobj",
					"text" : "change",
					"outlettype" : [ "", "int", "int" ],
					"fontname" : "Arial",
					"id" : "obj-118",
					"fontsize" : 12.0,
					"numinlets" : 1,
					"patching_rect" : [ 440.0, 390.0, 51.0, 20.0 ],
					"numoutlets" : 3
				}

			}
, 			{
				"box" : 				{
					"maxclass" : "newobj",
					"text" : "change",
					"outlettype" : [ "", "int", "int" ],
					"fontname" : "Arial",
					"id" : "obj-119",
					"fontsize" : 12.0,
					"numinlets" : 1,
					"patching_rect" : [ 380.0, 390.0, 51.0, 20.0 ],
					"numoutlets" : 3
				}

			}
, 			{
				"box" : 				{
					"maxclass" : "newobj",
					"text" : "change",
					"outlettype" : [ "", "int", "int" ],
					"fontname" : "Arial",
					"id" : "obj-120",
					"fontsize" : 12.0,
					"numinlets" : 1,
					"patching_rect" : [ 320.0, 390.0, 51.0, 20.0 ],
					"numoutlets" : 3
				}

			}
, 			{
				"box" : 				{
					"maxclass" : "newobj",
					"text" : "change",
					"outlettype" : [ "", "int", "int" ],
					"fontname" : "Arial",
					"id" : "obj-117",
					"fontsize" : 12.0,
					"numinlets" : 1,
					"patching_rect" : [ 260.0, 390.0, 51.0, 20.0 ],
					"numoutlets" : 3
				}

			}
, 			{
				"box" : 				{
					"maxclass" : "newobj",
					"text" : "change",
					"outlettype" : [ "", "int", "int" ],
					"fontname" : "Arial",
					"id" : "obj-116",
					"fontsize" : 12.0,
					"numinlets" : 1,
					"patching_rect" : [ 200.0, 390.0, 51.0, 20.0 ],
					"numoutlets" : 3
				}

			}
, 			{
				"box" : 				{
					"maxclass" : "newobj",
					"text" : "change",
					"outlettype" : [ "", "int", "int" ],
					"fontname" : "Arial",
					"id" : "obj-115",
					"fontsize" : 12.0,
					"numinlets" : 1,
					"patching_rect" : [ 140.0, 390.0, 51.0, 20.0 ],
					"numoutlets" : 3
				}

			}
, 			{
				"box" : 				{
					"maxclass" : "message",
					"text" : "0",
					"outlettype" : [ "" ],
					"fontname" : "Arial",
					"id" : "obj-107",
					"fontsize" : 12.0,
					"numinlets" : 2,
					"patching_rect" : [ 660.0, 130.0, 24.5, 18.0 ],
					"numoutlets" : 1
				}

			}
, 			{
				"box" : 				{
					"maxclass" : "message",
					"text" : "0",
					"outlettype" : [ "" ],
					"fontname" : "Arial",
					"id" : "obj-108",
					"fontsize" : 12.0,
					"numinlets" : 2,
					"patching_rect" : [ 600.0, 130.0, 24.5, 18.0 ],
					"numoutlets" : 1
				}

			}
, 			{
				"box" : 				{
					"maxclass" : "message",
					"text" : "0",
					"outlettype" : [ "" ],
					"fontname" : "Arial",
					"id" : "obj-109",
					"fontsize" : 12.0,
					"numinlets" : 2,
					"patching_rect" : [ 540.0, 130.0, 24.5, 18.0 ],
					"numoutlets" : 1
				}

			}
, 			{
				"box" : 				{
					"maxclass" : "message",
					"text" : "0",
					"outlettype" : [ "" ],
					"fontname" : "Arial",
					"id" : "obj-110",
					"fontsize" : 12.0,
					"numinlets" : 2,
					"patching_rect" : [ 480.0, 130.0, 24.5, 18.0 ],
					"numoutlets" : 1
				}

			}
, 			{
				"box" : 				{
					"maxclass" : "message",
					"text" : "0",
					"outlettype" : [ "" ],
					"fontname" : "Arial",
					"id" : "obj-103",
					"fontsize" : 12.0,
					"numinlets" : 2,
					"patching_rect" : [ 420.0, 130.0, 24.5, 18.0 ],
					"numoutlets" : 1
				}

			}
, 			{
				"box" : 				{
					"maxclass" : "message",
					"text" : "0",
					"outlettype" : [ "" ],
					"fontname" : "Arial",
					"id" : "obj-104",
					"fontsize" : 12.0,
					"numinlets" : 2,
					"patching_rect" : [ 360.0, 130.0, 24.5, 18.0 ],
					"numoutlets" : 1
				}

			}
, 			{
				"box" : 				{
					"maxclass" : "message",
					"text" : "0",
					"outlettype" : [ "" ],
					"fontname" : "Arial",
					"id" : "obj-105",
					"fontsize" : 12.0,
					"numinlets" : 2,
					"patching_rect" : [ 300.0, 130.0, 24.5, 18.0 ],
					"numoutlets" : 1
				}

			}
, 			{
				"box" : 				{
					"maxclass" : "message",
					"text" : "0",
					"outlettype" : [ "" ],
					"fontname" : "Arial",
					"id" : "obj-102",
					"fontsize" : 12.0,
					"numinlets" : 2,
					"patching_rect" : [ 240.0, 130.0, 24.5, 18.0 ],
					"numoutlets" : 1
				}

			}
, 			{
				"box" : 				{
					"maxclass" : "message",
					"text" : "0",
					"outlettype" : [ "" ],
					"fontname" : "Arial",
					"id" : "obj-101",
					"fontsize" : 12.0,
					"numinlets" : 2,
					"patching_rect" : [ 180.0, 130.0, 24.5, 18.0 ],
					"numoutlets" : 1
				}

			}
, 			{
				"box" : 				{
					"maxclass" : "message",
					"text" : "0",
					"outlettype" : [ "" ],
					"fontname" : "Arial",
					"id" : "obj-100",
					"fontsize" : 12.0,
					"numinlets" : 2,
					"patching_rect" : [ 120.0, 130.0, 24.5, 18.0 ],
					"numoutlets" : 1
				}

			}
, 			{
				"box" : 				{
					"maxclass" : "newobj",
					"text" : "print ERROR",
					"fontname" : "Arial",
					"id" : "obj-99",
					"fontsize" : 12.0,
					"numinlets" : 1,
					"patching_rect" : [ 720.0, 130.0, 81.0, 20.0 ],
					"numoutlets" : 0
				}

			}
, 			{
				"box" : 				{
					"maxclass" : "newobj",
					"text" : "iter",
					"outlettype" : [ "" ],
					"fontname" : "Arial",
					"id" : "obj-98",
					"fontsize" : 12.0,
					"numinlets" : 1,
					"patching_rect" : [ 30.0, 60.0, 27.0, 20.0 ],
					"numoutlets" : 1
				}

			}
, 			{
				"box" : 				{
					"maxclass" : "newobj",
					"text" : "zl unique",
					"outlettype" : [ "", "" ],
					"fontname" : "Arial",
					"id" : "obj-77",
					"fontsize" : 12.0,
					"numinlets" : 2,
					"patching_rect" : [ 810.0, 590.0, 69.0, 20.0 ],
					"numoutlets" : 2
				}

			}
, 			{
				"box" : 				{
					"maxclass" : "message",
					"text" : "zlclear",
					"outlettype" : [ "" ],
					"fontname" : "Arial",
					"id" : "obj-76",
					"fontsize" : 12.0,
					"numinlets" : 2,
					"patching_rect" : [ 910.0, 510.0, 59.0, 18.0 ],
					"numoutlets" : 1
				}

			}
, 			{
				"box" : 				{
					"maxclass" : "message",
					"text" : "3 2 1 60 104 88 115 102 89 0",
					"linecount" : 4,
					"outlettype" : [ "" ],
					"fontname" : "Arial",
					"id" : "obj-75",
					"fontsize" : 12.0,
					"numinlets" : 2,
					"patching_rect" : [ 810.0, 510.0, 56.0, 60.0 ],
					"numoutlets" : 1
				}

			}
, 			{
				"box" : 				{
					"maxclass" : "newobj",
					"text" : "select 3 2 1 60 104 88 115 102 89 0",
					"outlettype" : [ "bang", "bang", "bang", "bang", "bang", "bang", "bang", "bang", "bang", "bang", "" ],
					"fontname" : "Arial",
					"id" : "obj-66",
					"fontsize" : 12.0,
					"numinlets" : 1,
					"patching_rect" : [ 120.0, 90.0, 619.0, 20.0 ],
					"numoutlets" : 11
				}

			}
, 			{
				"box" : 				{
					"maxclass" : "newobj",
					"text" : "trigger b i b",
					"outlettype" : [ "bang", "int", "bang" ],
					"fontname" : "Arial",
					"id" : "obj-60",
					"fontsize" : 12.0,
					"numinlets" : 1,
					"patching_rect" : [ 810.0, 470.0, 119.0, 20.0 ],
					"color" : [ 0.8, 0.839216, 0.709804, 1.0 ],
					"numoutlets" : 3
				}

			}
, 			{
				"box" : 				{
					"maxclass" : "message",
					"text" : "1 1 1 0",
					"outlettype" : [ "" ],
					"fontname" : "Arial",
					"id" : "obj-45",
					"fontsize" : 10.0,
					"numinlets" : 2,
					"patching_rect" : [ 680.0, 560.0, 43.0, 16.0 ],
					"numoutlets" : 1
				}

			}
, 			{
				"box" : 				{
					"maxclass" : "message",
					"text" : "0.6",
					"outlettype" : [ "" ],
					"fontname" : "Arial",
					"id" : "obj-50",
					"fontsize" : 10.0,
					"numinlets" : 2,
					"patching_rect" : [ 500.0, 520.0, 26.0, 16.0 ],
					"numoutlets" : 1
				}

			}
, 			{
				"box" : 				{
					"maxclass" : "message",
					"text" : "0.4",
					"outlettype" : [ "" ],
					"fontname" : "Arial",
					"id" : "obj-51",
					"fontsize" : 10.0,
					"numinlets" : 2,
					"patching_rect" : [ 560.0, 520.0, 23.0, 16.0 ],
					"numoutlets" : 1
				}

			}
, 			{
				"box" : 				{
					"maxclass" : "message",
					"text" : "0.2",
					"outlettype" : [ "" ],
					"fontname" : "Arial",
					"id" : "obj-52",
					"fontsize" : 10.0,
					"numinlets" : 2,
					"patching_rect" : [ 620.0, 520.0, 23.0, 16.0 ],
					"numoutlets" : 1
				}

			}
, 			{
				"box" : 				{
					"maxclass" : "message",
					"text" : "0.75 0.75 0. $1",
					"outlettype" : [ "" ],
					"fontname" : "Arial",
					"id" : "obj-53",
					"fontsize" : 10.0,
					"numinlets" : 2,
					"patching_rect" : [ 500.0, 560.0, 82.0, 16.0 ],
					"numoutlets" : 1
				}

			}
, 			{
				"box" : 				{
					"maxclass" : "message",
					"text" : "0.6",
					"outlettype" : [ "" ],
					"fontname" : "Arial",
					"id" : "obj-46",
					"fontsize" : 10.0,
					"numinlets" : 2,
					"patching_rect" : [ 320.0, 520.0, 25.0, 16.0 ],
					"numoutlets" : 1
				}

			}
, 			{
				"box" : 				{
					"maxclass" : "message",
					"text" : "0.4",
					"outlettype" : [ "" ],
					"fontname" : "Arial",
					"id" : "obj-47",
					"fontsize" : 10.0,
					"numinlets" : 2,
					"patching_rect" : [ 380.0, 520.0, 23.0, 16.0 ],
					"numoutlets" : 1
				}

			}
, 			{
				"box" : 				{
					"maxclass" : "message",
					"text" : "0.2",
					"outlettype" : [ "" ],
					"fontname" : "Arial",
					"id" : "obj-48",
					"fontsize" : 10.0,
					"numinlets" : 2,
					"patching_rect" : [ 440.0, 520.0, 23.0, 16.0 ],
					"numoutlets" : 1
				}

			}
, 			{
				"box" : 				{
					"maxclass" : "message",
					"text" : "0. 0.7 0. $1",
					"outlettype" : [ "" ],
					"fontname" : "Arial",
					"id" : "obj-49",
					"fontsize" : 10.0,
					"numinlets" : 2,
					"patching_rect" : [ 320.0, 560.0, 65.0, 16.0 ],
					"numoutlets" : 1
				}

			}
, 			{
				"box" : 				{
					"maxclass" : "message",
					"text" : "0.6",
					"outlettype" : [ "" ],
					"fontname" : "Arial",
					"id" : "obj-44",
					"fontsize" : 10.0,
					"numinlets" : 2,
					"patching_rect" : [ 140.0, 520.0, 26.0, 16.0 ],
					"numoutlets" : 1
				}

			}
, 			{
				"box" : 				{
					"maxclass" : "message",
					"text" : "0.4",
					"outlettype" : [ "" ],
					"fontname" : "Arial",
					"id" : "obj-43",
					"fontsize" : 10.0,
					"numinlets" : 2,
					"patching_rect" : [ 200.0, 520.0, 23.0, 16.0 ],
					"numoutlets" : 1
				}

			}
, 			{
				"box" : 				{
					"maxclass" : "message",
					"text" : "0.2",
					"outlettype" : [ "" ],
					"fontname" : "Arial",
					"id" : "obj-42",
					"fontsize" : 10.0,
					"numinlets" : 2,
					"patching_rect" : [ 260.0, 520.0, 23.0, 16.0 ],
					"numoutlets" : 1
				}

			}
, 			{
				"box" : 				{
					"maxclass" : "message",
					"text" : "1. 0. 0. $1",
					"outlettype" : [ "" ],
					"fontname" : "Arial",
					"id" : "obj-41",
					"fontsize" : 10.0,
					"numinlets" : 2,
					"patching_rect" : [ 140.0, 560.0, 59.0, 16.0 ],
					"numoutlets" : 1
				}

			}
, 			{
				"box" : 				{
					"maxclass" : "outlet",
					"id" : "obj-24",
					"numinlets" : 1,
					"patching_rect" : [ 700.0, 610.0, 25.0, 25.0 ],
					"numoutlets" : 0,
					"comment" : "LIVE COLOR"
				}

			}
, 			{
				"box" : 				{
					"maxclass" : "newobj",
					"text" : "route 89 102 115",
					"outlettype" : [ "", "", "", "" ],
					"fontname" : "Arial Bold",
					"id" : "obj-38",
					"fontsize" : 12.0,
					"numinlets" : 1,
					"patching_rect" : [ 1100.0, 270.0, 105.0, 20.0 ],
					"numoutlets" : 4
				}

			}
, 			{
				"box" : 				{
					"maxclass" : "newobj",
					"text" : "route 88 104 60",
					"outlettype" : [ "", "", "", "" ],
					"fontname" : "Arial Bold",
					"id" : "obj-39",
					"fontsize" : 12.0,
					"numinlets" : 1,
					"patching_rect" : [ 1030.0, 240.0, 97.0, 20.0 ],
					"numoutlets" : 4
				}

			}
, 			{
				"box" : 				{
					"maxclass" : "newobj",
					"text" : "route 1 2 3",
					"outlettype" : [ "", "", "", "" ],
					"fontname" : "Arial Bold",
					"id" : "obj-40",
					"fontsize" : 12.0,
					"numinlets" : 1,
					"patching_rect" : [ 980.0, 210.0, 69.0, 20.0 ],
					"numoutlets" : 4
				}

			}
, 			{
				"box" : 				{
					"maxclass" : "newobj",
					"text" : "route 89 102 115",
					"outlettype" : [ "", "", "", "" ],
					"fontname" : "Arial Bold",
					"id" : "obj-29",
					"fontsize" : 12.0,
					"numinlets" : 1,
					"patching_rect" : [ 860.0, 270.0, 108.0, 20.0 ],
					"numoutlets" : 4
				}

			}
, 			{
				"box" : 				{
					"maxclass" : "newobj",
					"text" : "route 88 104 60",
					"outlettype" : [ "", "", "", "" ],
					"fontname" : "Arial Bold",
					"id" : "obj-28",
					"fontsize" : 12.0,
					"numinlets" : 1,
					"patching_rect" : [ 790.0, 240.0, 101.0, 20.0 ],
					"numoutlets" : 4
				}

			}
, 			{
				"box" : 				{
					"maxclass" : "newobj",
					"text" : "route 1 2 3",
					"outlettype" : [ "", "", "", "" ],
					"fontname" : "Arial Bold",
					"id" : "obj-26",
					"fontsize" : 12.0,
					"numinlets" : 1,
					"patching_rect" : [ 740.0, 210.0, 72.0, 20.0 ],
					"numoutlets" : 4
				}

			}
, 			{
				"box" : 				{
					"maxclass" : "inlet",
					"outlettype" : [ "" ],
					"id" : "obj-25",
					"numinlets" : 0,
					"patching_rect" : [ 1130.0, 30.0, 25.0, 25.0 ],
					"numoutlets" : 1,
					"comment" : "brighten"
				}

			}
, 			{
				"box" : 				{
					"maxclass" : "inlet",
					"outlettype" : [ "" ],
					"id" : "obj-23",
					"numinlets" : 0,
					"patching_rect" : [ 890.0, 30.0, 25.0, 25.0 ],
					"numoutlets" : 1,
					"comment" : "darken"
				}

			}
, 			{
				"box" : 				{
					"maxclass" : "textbutton",
					"outlettype" : [ "", "", "int" ],
					"rounded" : 0.0,
					"fontname" : "Arial Bold",
					"id" : "obj-37",
					"bgovercolor" : [ 1.0, 1.0, 1.0, 1.0 ],
					"mode" : 1,
					"borderoncolor" : [ 0.356863, 0.356863, 0.356863, 1.0 ],
					"presentation_rect" : [ 0.0, 90.0, 89.0, 21.0 ],
					"textoveroncolor" : [ 0.0, 0.0, 0.0, 0.690196 ],
					"fontface" : 1,
					"texton" : "X",
					"fontsize" : 12.0,
					"bgoveroncolor" : [ 1.0, 1.0, 1.0, 1.0 ],
					"text" : "",
					"numinlets" : 1,
					"bgcolor" : [ 1.0, 1.0, 1.0, 1.0 ],
					"patching_rect" : [ 680.0, 180.0, 49.0, 22.0 ],
					"bgoncolor" : [ 1.0, 1.0, 1.0, 1.0 ],
					"presentation" : 1,
					"numoutlets" : 3,
					"tosymbol" : 0,
					"textoncolor" : [ 0.0, 0.0, 0.0, 0.509804 ]
				}

			}
, 			{
				"box" : 				{
					"maxclass" : "textbutton",
					"outlettype" : [ "", "", "int" ],
					"rounded" : 0.0,
					"fontname" : "Arial Bold",
					"id" : "obj-34",
					"bgovercolor" : [ 0.956863, 0.705882, 0.117647, 1.0 ],
					"mode" : 1,
					"borderoncolor" : [ 0.356863, 0.356863, 0.356863, 1.0 ],
					"presentation_rect" : [ 0.0, 60.0, 29.0, 21.0 ],
					"textoveroncolor" : [ 0.0, 0.0, 0.0, 0.690196 ],
					"fontface" : 1,
					"texton" : "X",
					"fontsize" : 12.0,
					"bgoveroncolor" : [ 0.956863, 0.705882, 0.117647, 1.0 ],
					"text" : "",
					"numinlets" : 1,
					"bgcolor" : [ 0.956863, 0.705882, 0.117647, 1.0 ],
					"patching_rect" : [ 500.0, 180.0, 49.0, 22.0 ],
					"bgoncolor" : [ 0.956863, 0.705882, 0.117647, 1.0 ],
					"presentation" : 1,
					"numoutlets" : 3,
					"tosymbol" : 0,
					"textoncolor" : [ 0.0, 0.0, 0.0, 0.509804 ]
				}

			}
, 			{
				"box" : 				{
					"maxclass" : "textbutton",
					"outlettype" : [ "", "", "int" ],
					"rounded" : 0.0,
					"fontname" : "Arial Bold",
					"id" : "obj-35",
					"bgovercolor" : [ 0.231373, 0.858824, 0.2, 1.0 ],
					"mode" : 1,
					"borderoncolor" : [ 0.356863, 0.356863, 0.356863, 1.0 ],
					"presentation_rect" : [ 0.0, 30.0, 29.0, 21.0 ],
					"textoveroncolor" : [ 0.0, 0.0, 0.0, 0.690196 ],
					"fontface" : 1,
					"texton" : "X",
					"fontsize" : 12.0,
					"bgoveroncolor" : [ 0.231373, 0.858824, 0.2, 1.0 ],
					"text" : "",
					"numinlets" : 1,
					"bgcolor" : [ 0.231373, 0.858824, 0.2, 1.0 ],
					"patching_rect" : [ 320.0, 180.0, 49.0, 22.0 ],
					"bgoncolor" : [ 0.231373, 0.858824, 0.2, 1.0 ],
					"presentation" : 1,
					"numoutlets" : 3,
					"tosymbol" : 0,
					"textoncolor" : [ 0.0, 0.0, 0.0, 0.509804 ]
				}

			}
, 			{
				"box" : 				{
					"maxclass" : "textbutton",
					"outlettype" : [ "", "", "int" ],
					"rounded" : 0.0,
					"fontname" : "Arial Bold",
					"id" : "obj-36",
					"bgovercolor" : [ 1.0, 0.14902, 0.14902, 1.0 ],
					"mode" : 1,
					"borderoncolor" : [ 0.356863, 0.356863, 0.356863, 1.0 ],
					"presentation_rect" : [ 0.0, 0.0, 29.0, 21.0 ],
					"textoveroncolor" : [ 0.0, 0.0, 0.0, 0.690196 ],
					"fontface" : 1,
					"texton" : "X",
					"fontsize" : 12.0,
					"bgoveroncolor" : [ 1.0, 0.14902, 0.14902, 1.0 ],
					"text" : "",
					"numinlets" : 1,
					"bgcolor" : [ 1.0, 0.14902, 0.14902, 1.0 ],
					"patching_rect" : [ 140.0, 180.0, 49.0, 22.0 ],
					"bgoncolor" : [ 1.0, 0.14902, 0.0, 1.0 ],
					"presentation" : 1,
					"numoutlets" : 3,
					"tosymbol" : 0,
					"textoncolor" : [ 0.0, 0.0, 0.0, 0.509804 ]
				}

			}
, 			{
				"box" : 				{
					"maxclass" : "textbutton",
					"outlettype" : [ "", "", "int" ],
					"rounded" : 0.0,
					"fontname" : "Arial Bold",
					"id" : "obj-31",
					"bgovercolor" : [ 0.956863, 0.705882, 0.117647, 0.682353 ],
					"mode" : 1,
					"borderoncolor" : [ 0.356863, 0.356863, 0.356863, 1.0 ],
					"presentation_rect" : [ 30.0, 60.0, 29.0, 21.0 ],
					"textoveroncolor" : [ 0.0, 0.0, 0.0, 0.690196 ],
					"fontface" : 1,
					"texton" : "X",
					"fontsize" : 12.0,
					"bgoveroncolor" : [ 0.956863, 0.705882, 0.117647, 0.682353 ],
					"text" : "",
					"numinlets" : 1,
					"bgcolor" : [ 0.956863, 0.705882, 0.117647, 0.682353 ],
					"patching_rect" : [ 560.0, 180.0, 49.0, 22.0 ],
					"bgoncolor" : [ 0.956863, 0.705882, 0.117647, 0.682353 ],
					"presentation" : 1,
					"numoutlets" : 3,
					"tosymbol" : 0,
					"textoncolor" : [ 0.0, 0.0, 0.0, 0.509804 ]
				}

			}
, 			{
				"box" : 				{
					"maxclass" : "textbutton",
					"outlettype" : [ "", "", "int" ],
					"rounded" : 0.0,
					"fontname" : "Arial Bold",
					"id" : "obj-32",
					"bgovercolor" : [ 0.231373, 0.858824, 0.2, 0.682353 ],
					"mode" : 1,
					"borderoncolor" : [ 0.356863, 0.356863, 0.356863, 1.0 ],
					"presentation_rect" : [ 30.0, 30.0, 29.0, 21.0 ],
					"textoveroncolor" : [ 0.0, 0.0, 0.0, 0.690196 ],
					"fontface" : 1,
					"texton" : "X",
					"fontsize" : 12.0,
					"bgoveroncolor" : [ 0.231373, 0.858824, 0.2, 0.682353 ],
					"text" : "",
					"numinlets" : 1,
					"bgcolor" : [ 0.231373, 0.858824, 0.2, 0.682353 ],
					"patching_rect" : [ 380.0, 180.0, 49.0, 22.0 ],
					"bgoncolor" : [ 0.231373, 0.858824, 0.2, 0.682353 ],
					"presentation" : 1,
					"numoutlets" : 3,
					"tosymbol" : 0,
					"textoncolor" : [ 0.0, 0.0, 0.0, 0.509804 ]
				}

			}
, 			{
				"box" : 				{
					"maxclass" : "textbutton",
					"outlettype" : [ "", "", "int" ],
					"rounded" : 0.0,
					"fontname" : "Arial Bold",
					"id" : "obj-33",
					"bgovercolor" : [ 1.0, 0.14902, 0.14902, 0.682353 ],
					"mode" : 1,
					"borderoncolor" : [ 0.356863, 0.356863, 0.356863, 1.0 ],
					"presentation_rect" : [ 30.0, 0.0, 29.0, 21.0 ],
					"textoveroncolor" : [ 0.0, 0.0, 0.0, 0.690196 ],
					"fontface" : 1,
					"texton" : "X",
					"fontsize" : 12.0,
					"bgoveroncolor" : [ 1.0, 0.14902, 0.14902, 0.682353 ],
					"text" : "",
					"numinlets" : 1,
					"bgcolor" : [ 1.0, 0.14902, 0.14902, 0.682353 ],
					"patching_rect" : [ 200.0, 180.0, 49.0, 22.0 ],
					"bgoncolor" : [ 1.0, 0.14902, 0.14902, 0.682353 ],
					"presentation" : 1,
					"numoutlets" : 3,
					"tosymbol" : 0,
					"textoncolor" : [ 0.0, 0.0, 0.0, 0.509804 ]
				}

			}
, 			{
				"box" : 				{
					"maxclass" : "textbutton",
					"outlettype" : [ "", "", "int" ],
					"rounded" : 0.0,
					"fontname" : "Arial Bold",
					"id" : "obj-30",
					"bgovercolor" : [ 0.956863, 0.705882, 0.117647, 0.396078 ],
					"mode" : 1,
					"borderoncolor" : [ 0.356863, 0.356863, 0.356863, 1.0 ],
					"presentation_rect" : [ 60.0, 60.0, 29.0, 21.0 ],
					"textoveroncolor" : [ 0.0, 0.0, 0.0, 0.690196 ],
					"fontface" : 1,
					"texton" : "X",
					"fontsize" : 12.0,
					"bgoveroncolor" : [ 0.956863, 0.705882, 0.117647, 0.396078 ],
					"text" : "",
					"numinlets" : 1,
					"bgcolor" : [ 0.956863, 0.705882, 0.117647, 0.396078 ],
					"patching_rect" : [ 620.0, 180.0, 49.0, 22.0 ],
					"bgoncolor" : [ 0.956863, 0.705882, 0.117647, 0.396078 ],
					"presentation" : 1,
					"numoutlets" : 3,
					"tosymbol" : 0,
					"textoncolor" : [ 0.0, 0.0, 0.0, 0.509804 ]
				}

			}
, 			{
				"box" : 				{
					"maxclass" : "textbutton",
					"outlettype" : [ "", "", "int" ],
					"rounded" : 0.0,
					"fontname" : "Arial Bold",
					"id" : "obj-27",
					"bgovercolor" : [ 0.231373, 0.858824, 0.2, 0.396078 ],
					"mode" : 1,
					"borderoncolor" : [ 0.356863, 0.356863, 0.356863, 1.0 ],
					"presentation_rect" : [ 60.0, 30.0, 29.0, 21.0 ],
					"textoveroncolor" : [ 0.0, 0.0, 0.0, 0.690196 ],
					"fontface" : 1,
					"texton" : "X",
					"fontsize" : 12.0,
					"bgoveroncolor" : [ 0.231373, 0.858824, 0.2, 0.396078 ],
					"text" : "",
					"numinlets" : 1,
					"bgcolor" : [ 0.231373, 0.858824, 0.2, 0.396078 ],
					"patching_rect" : [ 440.0, 180.0, 49.0, 22.0 ],
					"bgoncolor" : [ 0.231373, 0.858824, 0.2, 0.396078 ],
					"presentation" : 1,
					"numoutlets" : 3,
					"tosymbol" : 0,
					"textoncolor" : [ 0.0, 0.0, 0.0, 0.509804 ]
				}

			}
, 			{
				"box" : 				{
					"maxclass" : "textbutton",
					"outlettype" : [ "", "", "int" ],
					"rounded" : 0.0,
					"fontname" : "Arial Bold",
					"id" : "obj-22",
					"bgovercolor" : [ 1.0, 0.14902, 0.14902, 0.396078 ],
					"mode" : 1,
					"borderoncolor" : [ 0.356863, 0.356863, 0.356863, 1.0 ],
					"presentation_rect" : [ 60.0, 0.0, 29.0, 21.0 ],
					"textoveroncolor" : [ 0.0, 0.0, 0.0, 0.690196 ],
					"fontface" : 1,
					"texton" : "X",
					"fontsize" : 12.0,
					"bgoveroncolor" : [ 1.0, 0.14902, 0.14902, 0.396078 ],
					"text" : "",
					"numinlets" : 1,
					"bgcolor" : [ 1.0, 0.14902, 0.14902, 0.396078 ],
					"patching_rect" : [ 260.0, 180.0, 49.0, 22.0 ],
					"bgoncolor" : [ 1.0, 0.14902, 0.14902, 0.396078 ],
					"presentation" : 1,
					"numoutlets" : 3,
					"tosymbol" : 0,
					"textoncolor" : [ 0.0, 0.0, 0.0, 0.509804 ]
				}

			}
, 			{
				"box" : 				{
					"maxclass" : "message",
					"text" : "0",
					"outlettype" : [ "" ],
					"fontname" : "Arial",
					"id" : "obj-21",
					"fontsize" : 10.0,
					"numinlets" : 2,
					"patching_rect" : [ 680.0, 420.0, 27.0, 16.0 ],
					"numoutlets" : 1
				}

			}
, 			{
				"box" : 				{
					"maxclass" : "message",
					"text" : "89",
					"outlettype" : [ "" ],
					"fontname" : "Arial",
					"id" : "obj-18",
					"fontsize" : 10.0,
					"numinlets" : 2,
					"patching_rect" : [ 620.0, 420.0, 26.0, 16.0 ],
					"numoutlets" : 1
				}

			}
, 			{
				"box" : 				{
					"maxclass" : "message",
					"text" : "102",
					"outlettype" : [ "" ],
					"fontname" : "Arial",
					"id" : "obj-19",
					"fontsize" : 10.0,
					"numinlets" : 2,
					"patching_rect" : [ 560.0, 420.0, 26.0, 16.0 ],
					"numoutlets" : 1
				}

			}
, 			{
				"box" : 				{
					"maxclass" : "message",
					"text" : "115",
					"outlettype" : [ "" ],
					"fontname" : "Arial",
					"id" : "obj-20",
					"fontsize" : 10.0,
					"numinlets" : 2,
					"patching_rect" : [ 500.0, 420.0, 26.0, 16.0 ],
					"numoutlets" : 1
				}

			}
, 			{
				"box" : 				{
					"maxclass" : "message",
					"text" : "88",
					"outlettype" : [ "" ],
					"fontname" : "Arial",
					"id" : "obj-17",
					"fontsize" : 10.0,
					"numinlets" : 2,
					"patching_rect" : [ 440.0, 420.0, 26.0, 16.0 ],
					"numoutlets" : 1
				}

			}
, 			{
				"box" : 				{
					"maxclass" : "message",
					"text" : "104",
					"outlettype" : [ "" ],
					"fontname" : "Arial",
					"id" : "obj-16",
					"fontsize" : 10.0,
					"numinlets" : 2,
					"patching_rect" : [ 380.0, 420.0, 26.0, 16.0 ],
					"numoutlets" : 1
				}

			}
, 			{
				"box" : 				{
					"maxclass" : "message",
					"text" : "60",
					"outlettype" : [ "" ],
					"fontname" : "Arial",
					"id" : "obj-15",
					"fontsize" : 10.0,
					"numinlets" : 2,
					"patching_rect" : [ 320.0, 420.0, 26.0, 16.0 ],
					"numoutlets" : 1
				}

			}
, 			{
				"box" : 				{
					"maxclass" : "message",
					"text" : "1",
					"outlettype" : [ "" ],
					"fontname" : "Arial",
					"id" : "obj-14",
					"fontsize" : 10.0,
					"numinlets" : 2,
					"patching_rect" : [ 260.0, 420.0, 27.0, 16.0 ],
					"numoutlets" : 1
				}

			}
, 			{
				"box" : 				{
					"maxclass" : "message",
					"text" : "2",
					"outlettype" : [ "" ],
					"fontname" : "Arial",
					"id" : "obj-13",
					"fontsize" : 10.0,
					"numinlets" : 2,
					"patching_rect" : [ 200.0, 420.0, 27.0, 16.0 ],
					"numoutlets" : 1
				}

			}
, 			{
				"box" : 				{
					"maxclass" : "message",
					"text" : "3",
					"outlettype" : [ "" ],
					"fontname" : "Arial",
					"id" : "obj-12",
					"fontsize" : 10.0,
					"numinlets" : 2,
					"patching_rect" : [ 140.0, 420.0, 27.0, 16.0 ],
					"numoutlets" : 1
				}

			}
, 			{
				"box" : 				{
					"maxclass" : "inlet",
					"outlettype" : [ "" ],
					"id" : "obj-11",
					"numinlets" : 0,
					"patching_rect" : [ 680.0, 30.0, 25.0, 25.0 ],
					"numoutlets" : 1,
					"comment" : "clean"
				}

			}
, 			{
				"box" : 				{
					"maxclass" : "inlet",
					"outlettype" : [ "" ],
					"id" : "obj-8",
					"numinlets" : 0,
					"patching_rect" : [ 500.0, 30.0, 25.0, 25.0 ],
					"numoutlets" : 1,
					"comment" : "dark orange"
				}

			}
, 			{
				"box" : 				{
					"maxclass" : "inlet",
					"outlettype" : [ "" ],
					"id" : "obj-9",
					"numinlets" : 0,
					"patching_rect" : [ 560.0, 30.0, 25.0, 25.0 ],
					"numoutlets" : 1,
					"comment" : "orange"
				}

			}
, 			{
				"box" : 				{
					"maxclass" : "inlet",
					"outlettype" : [ "" ],
					"id" : "obj-10",
					"numinlets" : 0,
					"patching_rect" : [ 620.0, 30.0, 25.0, 25.0 ],
					"numoutlets" : 1,
					"comment" : "bright orange"
				}

			}
, 			{
				"box" : 				{
					"maxclass" : "inlet",
					"outlettype" : [ "" ],
					"id" : "obj-6",
					"numinlets" : 0,
					"patching_rect" : [ 320.0, 30.0, 25.0, 25.0 ],
					"numoutlets" : 1,
					"comment" : "dark green"
				}

			}
, 			{
				"box" : 				{
					"maxclass" : "inlet",
					"outlettype" : [ "" ],
					"id" : "obj-7",
					"numinlets" : 0,
					"patching_rect" : [ 380.0, 30.0, 25.0, 25.0 ],
					"numoutlets" : 1,
					"comment" : "green"
				}

			}
, 			{
				"box" : 				{
					"maxclass" : "inlet",
					"outlettype" : [ "" ],
					"id" : "obj-4",
					"numinlets" : 0,
					"patching_rect" : [ 440.0, 30.0, 25.0, 25.0 ],
					"numoutlets" : 1,
					"comment" : "bright green"
				}

			}
, 			{
				"box" : 				{
					"maxclass" : "inlet",
					"outlettype" : [ "" ],
					"id" : "obj-5",
					"numinlets" : 0,
					"patching_rect" : [ 140.0, 30.0, 25.0, 25.0 ],
					"numoutlets" : 1,
					"comment" : "dark red"
				}

			}
, 			{
				"box" : 				{
					"maxclass" : "inlet",
					"outlettype" : [ "" ],
					"id" : "obj-3",
					"numinlets" : 0,
					"patching_rect" : [ 200.0, 30.0, 25.0, 25.0 ],
					"numoutlets" : 1,
					"comment" : "red"
				}

			}
, 			{
				"box" : 				{
					"maxclass" : "inlet",
					"outlettype" : [ "" ],
					"id" : "obj-2",
					"numinlets" : 0,
					"patching_rect" : [ 260.0, 30.0, 25.0, 25.0 ],
					"numoutlets" : 1,
					"comment" : "bright red"
				}

			}
, 			{
				"box" : 				{
					"maxclass" : "outlet",
					"id" : "obj-1",
					"numinlets" : 1,
					"patching_rect" : [ 90.0, 610.0, 25.0, 25.0 ],
					"numoutlets" : 0,
					"comment" : "LAUNCHPAD COLOR"
				}

			}
 ],
		"lines" : [ 			{
				"patchline" : 				{
					"source" : [ "obj-77", 0 ],
					"destination" : [ "obj-98", 0 ],
					"hidden" : 0,
					"midpoints" : [ 819.5, 612.0, 741.0, 612.0, 741.0, 654.0, 15.0, 654.0, 15.0, 57.0, 39.5, 57.0 ]
				}

			}
, 			{
				"patchline" : 				{
					"source" : [ "obj-38", 0 ],
					"destination" : [ "obj-121", 0 ],
					"hidden" : 0,
					"midpoints" : [ 1109.5, 349.5, 629.5, 349.5 ]
				}

			}
, 			{
				"patchline" : 				{
					"source" : [ "obj-38", 1 ],
					"destination" : [ "obj-121", 0 ],
					"hidden" : 0,
					"midpoints" : [ 1138.166626, 349.5, 629.5, 349.5 ]
				}

			}
, 			{
				"patchline" : 				{
					"source" : [ "obj-29", 0 ],
					"destination" : [ "obj-122", 0 ],
					"hidden" : 0,
					"midpoints" : [ 869.5, 339.5, 569.5, 339.5 ]
				}

			}
, 			{
				"patchline" : 				{
					"source" : [ "obj-38", 2 ],
					"destination" : [ "obj-122", 0 ],
					"hidden" : 0,
					"midpoints" : [ 1166.833374, 339.5, 569.5, 339.5 ]
				}

			}
, 			{
				"patchline" : 				{
					"source" : [ "obj-29", 1 ],
					"destination" : [ "obj-123", 0 ],
					"hidden" : 0,
					"midpoints" : [ 899.166687, 329.5, 509.5, 329.5 ]
				}

			}
, 			{
				"patchline" : 				{
					"source" : [ "obj-29", 2 ],
					"destination" : [ "obj-123", 0 ],
					"hidden" : 0,
					"midpoints" : [ 928.833313, 329.5, 509.5, 329.5 ]
				}

			}
, 			{
				"patchline" : 				{
					"source" : [ "obj-39", 0 ],
					"destination" : [ "obj-118", 0 ],
					"hidden" : 0,
					"midpoints" : [ 1039.5, 329.5, 449.5, 329.5 ]
				}

			}
, 			{
				"patchline" : 				{
					"source" : [ "obj-39", 1 ],
					"destination" : [ "obj-118", 0 ],
					"hidden" : 0,
					"midpoints" : [ 1065.5, 329.5, 449.5, 329.5 ]
				}

			}
, 			{
				"patchline" : 				{
					"source" : [ "obj-28", 0 ],
					"destination" : [ "obj-119", 0 ],
					"hidden" : 0,
					"midpoints" : [ 799.5, 319.5, 389.5, 319.5 ]
				}

			}
, 			{
				"patchline" : 				{
					"source" : [ "obj-39", 2 ],
					"destination" : [ "obj-119", 0 ],
					"hidden" : 0,
					"midpoints" : [ 1091.5, 319.5, 389.5, 319.5 ]
				}

			}
, 			{
				"patchline" : 				{
					"source" : [ "obj-28", 1 ],
					"destination" : [ "obj-120", 0 ],
					"hidden" : 0,
					"midpoints" : [ 826.833313, 309.5, 329.5, 309.5 ]
				}

			}
, 			{
				"patchline" : 				{
					"source" : [ "obj-28", 2 ],
					"destination" : [ "obj-120", 0 ],
					"hidden" : 0,
					"midpoints" : [ 854.166687, 309.5, 329.5, 309.5 ]
				}

			}
, 			{
				"patchline" : 				{
					"source" : [ "obj-40", 0 ],
					"destination" : [ "obj-117", 0 ],
					"hidden" : 0,
					"midpoints" : [ 989.5, 309.5, 269.5, 309.5 ]
				}

			}
, 			{
				"patchline" : 				{
					"source" : [ "obj-40", 1 ],
					"destination" : [ "obj-117", 0 ],
					"hidden" : 0,
					"midpoints" : [ 1006.166687, 309.5, 269.5, 309.5 ]
				}

			}
, 			{
				"patchline" : 				{
					"source" : [ "obj-26", 0 ],
					"destination" : [ "obj-116", 0 ],
					"hidden" : 0,
					"midpoints" : [ 749.5, 294.5, 209.5, 294.5 ]
				}

			}
, 			{
				"patchline" : 				{
					"source" : [ "obj-40", 2 ],
					"destination" : [ "obj-116", 0 ],
					"hidden" : 0,
					"midpoints" : [ 1022.833313, 299.5, 209.5, 299.5 ]
				}

			}
, 			{
				"patchline" : 				{
					"source" : [ "obj-26", 1 ],
					"destination" : [ "obj-115", 0 ],
					"hidden" : 0,
					"midpoints" : [ 767.166687, 284.5, 149.5, 284.5 ]
				}

			}
, 			{
				"patchline" : 				{
					"source" : [ "obj-26", 2 ],
					"destination" : [ "obj-115", 0 ],
					"hidden" : 0,
					"midpoints" : [ 784.833313, 284.5, 149.5, 284.5 ]
				}

			}
, 			{
				"patchline" : 				{
					"source" : [ "obj-12", 0 ],
					"destination" : [ "obj-1", 0 ],
					"hidden" : 0,
					"midpoints" : [ 149.5, 488.5, 99.5, 488.5 ]
				}

			}
, 			{
				"patchline" : 				{
					"source" : [ "obj-12", 0 ],
					"destination" : [ "obj-44", 0 ],
					"hidden" : 0,
					"midpoints" : [  ]
				}

			}
, 			{
				"patchline" : 				{
					"source" : [ "obj-13", 0 ],
					"destination" : [ "obj-60", 0 ],
					"hidden" : 0,
					"midpoints" : [ 209.5, 456.0, 819.5, 456.0 ]
				}

			}
, 			{
				"patchline" : 				{
					"source" : [ "obj-12", 0 ],
					"destination" : [ "obj-60", 0 ],
					"hidden" : 0,
					"midpoints" : [ 149.5, 456.0, 819.5, 456.0 ]
				}

			}
, 			{
				"patchline" : 				{
					"source" : [ "obj-124", 1 ],
					"destination" : [ "obj-21", 0 ],
					"hidden" : 0,
					"midpoints" : [  ]
				}

			}
, 			{
				"patchline" : 				{
					"source" : [ "obj-121", 1 ],
					"destination" : [ "obj-18", 0 ],
					"hidden" : 0,
					"midpoints" : [  ]
				}

			}
, 			{
				"patchline" : 				{
					"source" : [ "obj-122", 1 ],
					"destination" : [ "obj-19", 0 ],
					"hidden" : 0,
					"midpoints" : [  ]
				}

			}
, 			{
				"patchline" : 				{
					"source" : [ "obj-123", 1 ],
					"destination" : [ "obj-20", 0 ],
					"hidden" : 0,
					"midpoints" : [  ]
				}

			}
, 			{
				"patchline" : 				{
					"source" : [ "obj-118", 1 ],
					"destination" : [ "obj-17", 0 ],
					"hidden" : 0,
					"midpoints" : [  ]
				}

			}
, 			{
				"patchline" : 				{
					"source" : [ "obj-119", 1 ],
					"destination" : [ "obj-16", 0 ],
					"hidden" : 0,
					"midpoints" : [  ]
				}

			}
, 			{
				"patchline" : 				{
					"source" : [ "obj-120", 1 ],
					"destination" : [ "obj-15", 0 ],
					"hidden" : 0,
					"midpoints" : [  ]
				}

			}
, 			{
				"patchline" : 				{
					"source" : [ "obj-117", 1 ],
					"destination" : [ "obj-14", 0 ],
					"hidden" : 0,
					"midpoints" : [  ]
				}

			}
, 			{
				"patchline" : 				{
					"source" : [ "obj-116", 1 ],
					"destination" : [ "obj-13", 0 ],
					"hidden" : 0,
					"midpoints" : [  ]
				}

			}
, 			{
				"patchline" : 				{
					"source" : [ "obj-115", 1 ],
					"destination" : [ "obj-12", 0 ],
					"hidden" : 0,
					"midpoints" : [  ]
				}

			}
, 			{
				"patchline" : 				{
					"source" : [ "obj-37", 0 ],
					"destination" : [ "obj-124", 0 ],
					"hidden" : 0,
					"midpoints" : [  ]
				}

			}
, 			{
				"patchline" : 				{
					"source" : [ "obj-30", 0 ],
					"destination" : [ "obj-121", 0 ],
					"hidden" : 0,
					"midpoints" : [  ]
				}

			}
, 			{
				"patchline" : 				{
					"source" : [ "obj-31", 0 ],
					"destination" : [ "obj-122", 0 ],
					"hidden" : 0,
					"midpoints" : [  ]
				}

			}
, 			{
				"patchline" : 				{
					"source" : [ "obj-34", 0 ],
					"destination" : [ "obj-123", 0 ],
					"hidden" : 0,
					"midpoints" : [  ]
				}

			}
, 			{
				"patchline" : 				{
					"source" : [ "obj-27", 0 ],
					"destination" : [ "obj-118", 0 ],
					"hidden" : 0,
					"midpoints" : [  ]
				}

			}
, 			{
				"patchline" : 				{
					"source" : [ "obj-32", 0 ],
					"destination" : [ "obj-119", 0 ],
					"hidden" : 0,
					"midpoints" : [  ]
				}

			}
, 			{
				"patchline" : 				{
					"source" : [ "obj-35", 0 ],
					"destination" : [ "obj-120", 0 ],
					"hidden" : 0,
					"midpoints" : [  ]
				}

			}
, 			{
				"patchline" : 				{
					"source" : [ "obj-22", 0 ],
					"destination" : [ "obj-117", 0 ],
					"hidden" : 0,
					"midpoints" : [  ]
				}

			}
, 			{
				"patchline" : 				{
					"source" : [ "obj-33", 0 ],
					"destination" : [ "obj-116", 0 ],
					"hidden" : 0,
					"midpoints" : [  ]
				}

			}
, 			{
				"patchline" : 				{
					"source" : [ "obj-36", 0 ],
					"destination" : [ "obj-115", 0 ],
					"hidden" : 0,
					"midpoints" : [  ]
				}

			}
, 			{
				"patchline" : 				{
					"source" : [ "obj-107", 0 ],
					"destination" : [ "obj-37", 0 ],
					"hidden" : 0,
					"midpoints" : [  ]
				}

			}
, 			{
				"patchline" : 				{
					"source" : [ "obj-108", 0 ],
					"destination" : [ "obj-30", 0 ],
					"hidden" : 0,
					"midpoints" : [  ]
				}

			}
, 			{
				"patchline" : 				{
					"source" : [ "obj-109", 0 ],
					"destination" : [ "obj-31", 0 ],
					"hidden" : 0,
					"midpoints" : [  ]
				}

			}
, 			{
				"patchline" : 				{
					"source" : [ "obj-110", 0 ],
					"destination" : [ "obj-34", 0 ],
					"hidden" : 0,
					"midpoints" : [  ]
				}

			}
, 			{
				"patchline" : 				{
					"source" : [ "obj-103", 0 ],
					"destination" : [ "obj-27", 0 ],
					"hidden" : 0,
					"midpoints" : [  ]
				}

			}
, 			{
				"patchline" : 				{
					"source" : [ "obj-104", 0 ],
					"destination" : [ "obj-32", 0 ],
					"hidden" : 0,
					"midpoints" : [  ]
				}

			}
, 			{
				"patchline" : 				{
					"source" : [ "obj-105", 0 ],
					"destination" : [ "obj-35", 0 ],
					"hidden" : 0,
					"midpoints" : [  ]
				}

			}
, 			{
				"patchline" : 				{
					"source" : [ "obj-102", 0 ],
					"destination" : [ "obj-22", 0 ],
					"hidden" : 0,
					"midpoints" : [  ]
				}

			}
, 			{
				"patchline" : 				{
					"source" : [ "obj-101", 0 ],
					"destination" : [ "obj-33", 0 ],
					"hidden" : 0,
					"midpoints" : [  ]
				}

			}
, 			{
				"patchline" : 				{
					"source" : [ "obj-100", 0 ],
					"destination" : [ "obj-36", 0 ],
					"hidden" : 0,
					"midpoints" : [  ]
				}

			}
, 			{
				"patchline" : 				{
					"source" : [ "obj-66", 9 ],
					"destination" : [ "obj-107", 0 ],
					"hidden" : 0,
					"midpoints" : [  ]
				}

			}
, 			{
				"patchline" : 				{
					"source" : [ "obj-66", 8 ],
					"destination" : [ "obj-108", 0 ],
					"hidden" : 0,
					"midpoints" : [  ]
				}

			}
, 			{
				"patchline" : 				{
					"source" : [ "obj-66", 7 ],
					"destination" : [ "obj-109", 0 ],
					"hidden" : 0,
					"midpoints" : [  ]
				}

			}
, 			{
				"patchline" : 				{
					"source" : [ "obj-66", 6 ],
					"destination" : [ "obj-110", 0 ],
					"hidden" : 0,
					"midpoints" : [  ]
				}

			}
, 			{
				"patchline" : 				{
					"source" : [ "obj-66", 5 ],
					"destination" : [ "obj-103", 0 ],
					"hidden" : 0,
					"midpoints" : [  ]
				}

			}
, 			{
				"patchline" : 				{
					"source" : [ "obj-66", 4 ],
					"destination" : [ "obj-104", 0 ],
					"hidden" : 0,
					"midpoints" : [  ]
				}

			}
, 			{
				"patchline" : 				{
					"source" : [ "obj-66", 3 ],
					"destination" : [ "obj-105", 0 ],
					"hidden" : 0,
					"midpoints" : [  ]
				}

			}
, 			{
				"patchline" : 				{
					"source" : [ "obj-66", 2 ],
					"destination" : [ "obj-102", 0 ],
					"hidden" : 0,
					"midpoints" : [  ]
				}

			}
, 			{
				"patchline" : 				{
					"source" : [ "obj-66", 1 ],
					"destination" : [ "obj-101", 0 ],
					"hidden" : 0,
					"midpoints" : [  ]
				}

			}
, 			{
				"patchline" : 				{
					"source" : [ "obj-66", 0 ],
					"destination" : [ "obj-100", 0 ],
					"hidden" : 0,
					"midpoints" : [  ]
				}

			}
, 			{
				"patchline" : 				{
					"source" : [ "obj-66", 10 ],
					"destination" : [ "obj-99", 0 ],
					"hidden" : 0,
					"midpoints" : [  ]
				}

			}
, 			{
				"patchline" : 				{
					"source" : [ "obj-98", 0 ],
					"destination" : [ "obj-66", 0 ],
					"hidden" : 0,
					"midpoints" : [ 39.5, 84.5, 129.5, 84.5 ]
				}

			}
, 			{
				"patchline" : 				{
					"source" : [ "obj-60", 1 ],
					"destination" : [ "obj-77", 1 ],
					"hidden" : 0,
					"midpoints" : [  ]
				}

			}
, 			{
				"patchline" : 				{
					"source" : [ "obj-60", 2 ],
					"destination" : [ "obj-76", 0 ],
					"hidden" : 0,
					"midpoints" : [  ]
				}

			}
, 			{
				"patchline" : 				{
					"source" : [ "obj-60", 0 ],
					"destination" : [ "obj-75", 0 ],
					"hidden" : 0,
					"midpoints" : [  ]
				}

			}
, 			{
				"patchline" : 				{
					"source" : [ "obj-75", 0 ],
					"destination" : [ "obj-77", 0 ],
					"hidden" : 0,
					"midpoints" : [  ]
				}

			}
, 			{
				"patchline" : 				{
					"source" : [ "obj-76", 0 ],
					"destination" : [ "obj-77", 0 ],
					"hidden" : 0,
					"midpoints" : [ 919.5, 582.0, 819.5, 582.0 ]
				}

			}
, 			{
				"patchline" : 				{
					"source" : [ "obj-14", 0 ],
					"destination" : [ "obj-60", 0 ],
					"hidden" : 0,
					"midpoints" : [ 269.5, 456.0, 819.5, 456.0 ]
				}

			}
, 			{
				"patchline" : 				{
					"source" : [ "obj-15", 0 ],
					"destination" : [ "obj-60", 0 ],
					"hidden" : 0,
					"midpoints" : [ 329.5, 456.0, 819.5, 456.0 ]
				}

			}
, 			{
				"patchline" : 				{
					"source" : [ "obj-16", 0 ],
					"destination" : [ "obj-60", 0 ],
					"hidden" : 0,
					"midpoints" : [ 389.5, 456.0, 819.5, 456.0 ]
				}

			}
, 			{
				"patchline" : 				{
					"source" : [ "obj-17", 0 ],
					"destination" : [ "obj-60", 0 ],
					"hidden" : 0,
					"midpoints" : [ 449.5, 456.0, 819.5, 456.0 ]
				}

			}
, 			{
				"patchline" : 				{
					"source" : [ "obj-20", 0 ],
					"destination" : [ "obj-60", 0 ],
					"hidden" : 0,
					"midpoints" : [ 509.5, 456.0, 819.5, 456.0 ]
				}

			}
, 			{
				"patchline" : 				{
					"source" : [ "obj-19", 0 ],
					"destination" : [ "obj-60", 0 ],
					"hidden" : 0,
					"midpoints" : [ 569.5, 456.0, 819.5, 456.0 ]
				}

			}
, 			{
				"patchline" : 				{
					"source" : [ "obj-18", 0 ],
					"destination" : [ "obj-60", 0 ],
					"hidden" : 0,
					"midpoints" : [ 629.5, 456.0, 819.5, 456.0 ]
				}

			}
, 			{
				"patchline" : 				{
					"source" : [ "obj-21", 0 ],
					"destination" : [ "obj-60", 0 ],
					"hidden" : 0,
					"midpoints" : [ 689.5, 456.0, 819.5, 456.0 ]
				}

			}
, 			{
				"patchline" : 				{
					"source" : [ "obj-45", 0 ],
					"destination" : [ "obj-24", 0 ],
					"hidden" : 0,
					"midpoints" : [ 689.5, 588.5, 709.5, 588.5 ]
				}

			}
, 			{
				"patchline" : 				{
					"source" : [ "obj-21", 0 ],
					"destination" : [ "obj-45", 0 ],
					"hidden" : 0,
					"midpoints" : [ 689.5, 517.5, 689.5, 517.5 ]
				}

			}
, 			{
				"patchline" : 				{
					"source" : [ "obj-25", 0 ],
					"destination" : [ "obj-38", 0 ],
					"hidden" : 0,
					"midpoints" : [ 1139.5, 266.0, 1109.5, 266.0 ]
				}

			}
, 			{
				"patchline" : 				{
					"source" : [ "obj-25", 0 ],
					"destination" : [ "obj-39", 0 ],
					"hidden" : 0,
					"midpoints" : [ 1139.5, 235.0, 1039.5, 235.0 ]
				}

			}
, 			{
				"patchline" : 				{
					"source" : [ "obj-25", 0 ],
					"destination" : [ "obj-40", 0 ],
					"hidden" : 0,
					"midpoints" : [ 1139.5, 201.0, 989.5, 201.0 ]
				}

			}
, 			{
				"patchline" : 				{
					"source" : [ "obj-23", 0 ],
					"destination" : [ "obj-29", 0 ],
					"hidden" : 0,
					"midpoints" : [ 899.5, 265.0, 869.5, 265.0 ]
				}

			}
, 			{
				"patchline" : 				{
					"source" : [ "obj-23", 0 ],
					"destination" : [ "obj-28", 0 ],
					"hidden" : 0,
					"midpoints" : [ 899.5, 235.0, 799.5, 235.0 ]
				}

			}
, 			{
				"patchline" : 				{
					"source" : [ "obj-23", 0 ],
					"destination" : [ "obj-26", 0 ],
					"hidden" : 0,
					"midpoints" : [ 899.5, 199.0, 749.5, 199.0 ]
				}

			}
, 			{
				"patchline" : 				{
					"source" : [ "obj-21", 0 ],
					"destination" : [ "obj-1", 0 ],
					"hidden" : 0,
					"midpoints" : [ 689.5, 488.5, 99.5, 488.5 ]
				}

			}
, 			{
				"patchline" : 				{
					"source" : [ "obj-14", 0 ],
					"destination" : [ "obj-1", 0 ],
					"hidden" : 0,
					"midpoints" : [ 269.5, 508.5, 99.5, 508.5 ]
				}

			}
, 			{
				"patchline" : 				{
					"source" : [ "obj-13", 0 ],
					"destination" : [ "obj-1", 0 ],
					"hidden" : 0,
					"midpoints" : [ 209.5, 498.5, 99.5, 498.5 ]
				}

			}
, 			{
				"patchline" : 				{
					"source" : [ "obj-17", 0 ],
					"destination" : [ "obj-1", 0 ],
					"hidden" : 0,
					"midpoints" : [ 449.5, 508.5, 99.5, 508.5 ]
				}

			}
, 			{
				"patchline" : 				{
					"source" : [ "obj-16", 0 ],
					"destination" : [ "obj-1", 0 ],
					"hidden" : 0,
					"midpoints" : [ 389.5, 498.5, 99.5, 498.5 ]
				}

			}
, 			{
				"patchline" : 				{
					"source" : [ "obj-15", 0 ],
					"destination" : [ "obj-1", 0 ],
					"hidden" : 0,
					"midpoints" : [ 329.5, 488.5, 99.5, 488.5 ]
				}

			}
, 			{
				"patchline" : 				{
					"source" : [ "obj-18", 0 ],
					"destination" : [ "obj-1", 0 ],
					"hidden" : 0,
					"midpoints" : [ 629.5, 508.5, 99.5, 508.5 ]
				}

			}
, 			{
				"patchline" : 				{
					"source" : [ "obj-19", 0 ],
					"destination" : [ "obj-1", 0 ],
					"hidden" : 0,
					"midpoints" : [ 569.5, 498.5, 99.5, 498.5 ]
				}

			}
, 			{
				"patchline" : 				{
					"source" : [ "obj-20", 0 ],
					"destination" : [ "obj-1", 0 ],
					"hidden" : 0,
					"midpoints" : [ 509.5, 488.5, 99.5, 488.5 ]
				}

			}
, 			{
				"patchline" : 				{
					"source" : [ "obj-3", 0 ],
					"destination" : [ "obj-33", 0 ],
					"hidden" : 0,
					"midpoints" : [  ]
				}

			}
, 			{
				"patchline" : 				{
					"source" : [ "obj-5", 0 ],
					"destination" : [ "obj-36", 0 ],
					"hidden" : 0,
					"midpoints" : [  ]
				}

			}
, 			{
				"patchline" : 				{
					"source" : [ "obj-4", 0 ],
					"destination" : [ "obj-27", 0 ],
					"hidden" : 0,
					"midpoints" : [  ]
				}

			}
, 			{
				"patchline" : 				{
					"source" : [ "obj-7", 0 ],
					"destination" : [ "obj-32", 0 ],
					"hidden" : 0,
					"midpoints" : [  ]
				}

			}
, 			{
				"patchline" : 				{
					"source" : [ "obj-6", 0 ],
					"destination" : [ "obj-35", 0 ],
					"hidden" : 0,
					"midpoints" : [  ]
				}

			}
, 			{
				"patchline" : 				{
					"source" : [ "obj-10", 0 ],
					"destination" : [ "obj-30", 0 ],
					"hidden" : 0,
					"midpoints" : [  ]
				}

			}
, 			{
				"patchline" : 				{
					"source" : [ "obj-9", 0 ],
					"destination" : [ "obj-31", 0 ],
					"hidden" : 0,
					"midpoints" : [  ]
				}

			}
, 			{
				"patchline" : 				{
					"source" : [ "obj-8", 0 ],
					"destination" : [ "obj-34", 0 ],
					"hidden" : 0,
					"midpoints" : [  ]
				}

			}
, 			{
				"patchline" : 				{
					"source" : [ "obj-11", 0 ],
					"destination" : [ "obj-37", 0 ],
					"hidden" : 0,
					"midpoints" : [  ]
				}

			}
, 			{
				"patchline" : 				{
					"source" : [ "obj-14", 0 ],
					"destination" : [ "obj-42", 0 ],
					"hidden" : 0,
					"midpoints" : [  ]
				}

			}
, 			{
				"patchline" : 				{
					"source" : [ "obj-13", 0 ],
					"destination" : [ "obj-43", 0 ],
					"hidden" : 0,
					"midpoints" : [  ]
				}

			}
, 			{
				"patchline" : 				{
					"source" : [ "obj-42", 0 ],
					"destination" : [ "obj-41", 0 ],
					"hidden" : 0,
					"midpoints" : [ 269.5, 548.5, 149.5, 548.5 ]
				}

			}
, 			{
				"patchline" : 				{
					"source" : [ "obj-43", 0 ],
					"destination" : [ "obj-41", 0 ],
					"hidden" : 0,
					"midpoints" : [ 209.5, 547.5, 149.5, 547.5 ]
				}

			}
, 			{
				"patchline" : 				{
					"source" : [ "obj-44", 0 ],
					"destination" : [ "obj-41", 0 ],
					"hidden" : 0,
					"midpoints" : [ 149.5, 548.5, 149.5, 548.5 ]
				}

			}
, 			{
				"patchline" : 				{
					"source" : [ "obj-41", 0 ],
					"destination" : [ "obj-24", 0 ],
					"hidden" : 0,
					"midpoints" : [ 149.5, 588.5, 709.5, 588.5 ]
				}

			}
, 			{
				"patchline" : 				{
					"source" : [ "obj-46", 0 ],
					"destination" : [ "obj-49", 0 ],
					"hidden" : 0,
					"midpoints" : [ 329.5, 548.5, 329.5, 548.5 ]
				}

			}
, 			{
				"patchline" : 				{
					"source" : [ "obj-47", 0 ],
					"destination" : [ "obj-49", 0 ],
					"hidden" : 0,
					"midpoints" : [ 389.5, 547.5, 329.5, 547.5 ]
				}

			}
, 			{
				"patchline" : 				{
					"source" : [ "obj-48", 0 ],
					"destination" : [ "obj-49", 0 ],
					"hidden" : 0,
					"midpoints" : [ 449.5, 548.5, 329.5, 548.5 ]
				}

			}
, 			{
				"patchline" : 				{
					"source" : [ "obj-17", 0 ],
					"destination" : [ "obj-48", 0 ],
					"hidden" : 0,
					"midpoints" : [  ]
				}

			}
, 			{
				"patchline" : 				{
					"source" : [ "obj-16", 0 ],
					"destination" : [ "obj-47", 0 ],
					"hidden" : 0,
					"midpoints" : [ 389.5, 493.5, 389.5, 493.5 ]
				}

			}
, 			{
				"patchline" : 				{
					"source" : [ "obj-15", 0 ],
					"destination" : [ "obj-46", 0 ],
					"hidden" : 0,
					"midpoints" : [ 329.5, 483.5, 329.5, 483.5 ]
				}

			}
, 			{
				"patchline" : 				{
					"source" : [ "obj-49", 0 ],
					"destination" : [ "obj-24", 0 ],
					"hidden" : 0,
					"midpoints" : [ 329.5, 588.5, 709.5, 588.5 ]
				}

			}
, 			{
				"patchline" : 				{
					"source" : [ "obj-50", 0 ],
					"destination" : [ "obj-53", 0 ],
					"hidden" : 0,
					"midpoints" : [ 509.5, 548.5, 509.5, 548.5 ]
				}

			}
, 			{
				"patchline" : 				{
					"source" : [ "obj-51", 0 ],
					"destination" : [ "obj-53", 0 ],
					"hidden" : 0,
					"midpoints" : [ 569.5, 547.5, 509.5, 547.5 ]
				}

			}
, 			{
				"patchline" : 				{
					"source" : [ "obj-52", 0 ],
					"destination" : [ "obj-53", 0 ],
					"hidden" : 0,
					"midpoints" : [ 629.5, 548.5, 509.5, 548.5 ]
				}

			}
, 			{
				"patchline" : 				{
					"source" : [ "obj-18", 0 ],
					"destination" : [ "obj-52", 0 ],
					"hidden" : 0,
					"midpoints" : [  ]
				}

			}
, 			{
				"patchline" : 				{
					"source" : [ "obj-19", 0 ],
					"destination" : [ "obj-51", 0 ],
					"hidden" : 0,
					"midpoints" : [  ]
				}

			}
, 			{
				"patchline" : 				{
					"source" : [ "obj-20", 0 ],
					"destination" : [ "obj-50", 0 ],
					"hidden" : 0,
					"midpoints" : [  ]
				}

			}
, 			{
				"patchline" : 				{
					"source" : [ "obj-53", 0 ],
					"destination" : [ "obj-24", 0 ],
					"hidden" : 0,
					"midpoints" : [ 509.5, 588.5, 709.5, 588.5 ]
				}

			}
, 			{
				"patchline" : 				{
					"source" : [ "obj-2", 0 ],
					"destination" : [ "obj-22", 0 ],
					"hidden" : 0,
					"midpoints" : [  ]
				}

			}
, 			{
				"patchline" : 				{
					"source" : [ "obj-26", 3 ],
					"destination" : [ "obj-54", 0 ],
					"hidden" : 0,
					"midpoints" : [  ]
				}

			}
, 			{
				"patchline" : 				{
					"source" : [ "obj-28", 3 ],
					"destination" : [ "obj-54", 0 ],
					"hidden" : 0,
					"midpoints" : [  ]
				}

			}
, 			{
				"patchline" : 				{
					"source" : [ "obj-29", 3 ],
					"destination" : [ "obj-54", 0 ],
					"hidden" : 0,
					"midpoints" : [  ]
				}

			}
, 			{
				"patchline" : 				{
					"source" : [ "obj-40", 3 ],
					"destination" : [ "obj-54", 0 ],
					"hidden" : 0,
					"midpoints" : [  ]
				}

			}
, 			{
				"patchline" : 				{
					"source" : [ "obj-39", 3 ],
					"destination" : [ "obj-54", 0 ],
					"hidden" : 0,
					"midpoints" : [  ]
				}

			}
, 			{
				"patchline" : 				{
					"source" : [ "obj-38", 3 ],
					"destination" : [ "obj-54", 0 ],
					"hidden" : 0,
					"midpoints" : [  ]
				}

			}
 ]
	}

}
